<?xml version="1.0" encoding="UTF-8"?><svg id="Group_1_copy" xmlns="http://www.w3.org/2000/svg" viewBox="0 0 240.99 59.86"><defs><style>.cls-1,.cls-2{fill:#343e32;}.cls-1,.cls-3{fill-rule:evenodd;}.cls-3{fill:#33452f;}</style></defs><g id="executive_members_club"><path class="cls-2" d="M39.9,54.82h-2.27v1.86h2.03v.6h-2.03v1.92h2.27v.6h-3v-5.58h3v.6Z"/><path class="cls-2" d="M46.04,57.63l-1.27,2.17h-.81l1.7-2.78-1.71-2.79h.82l1.34,2.18,1.28-2.18h.82l-1.72,2.79,1.71,2.78h-.82l-1.33-2.17Z"/><path class="cls-2" d="M55.37,54.82h-2.27v1.86h2.03v.6h-2.03v1.92h2.27v.6h-3v-5.58h3v.6Z"/><path class="cls-2" d="M62.19,54.16c1.21,0,2.17.61,2.58,1.69h-.87c-.3-.67-.9-1.05-1.71-1.05-1.17,0-2.04.85-2.04,2.21s.87,2.21,2.04,2.21c.82,0,1.41-.38,1.71-1.04h.87c-.42,1.07-1.38,1.67-2.58,1.67-1.56,0-2.78-1.17-2.78-2.84s1.22-2.85,2.78-2.85Z"/><path class="cls-2" d="M69.04,54.23h.73v3.53c0,1.02.55,1.46,1.38,1.46s1.37-.44,1.37-1.46v-3.53h.73v3.52c0,1.45-.95,2.11-2.1,2.11s-2.09-.66-2.09-2.11v-3.52Z"/><path class="cls-2" d="M77.31,54.23h3.77v.59h-1.52v4.98h-.73v-4.98h-1.53v-.59Z"/><path class="cls-2" d="M85.18,54.23h.73v5.57h-.73v-5.57Z"/><path class="cls-2" d="M94.19,54.23h.77l-2.1,5.57h-.84l-2.1-5.57h.78l1.75,4.81,1.75-4.81Z"/><path class="cls-2" d="M101.96,54.82h-2.27v1.86h2.03v.6h-2.03v1.92h2.27v.6h-3v-5.58h3v.6Z"/><path class="cls-2" d="M111.6,54.27h.78l2.05,4.57,2.05-4.57h.78v5.53h-.73v-4.13l-1.84,4.13h-.51l-1.85-4.13v4.13h-.73v-5.53Z"/><path class="cls-2" d="M124.68,54.82h-2.27v1.86h2.03v.6h-2.03v1.92h2.27v.6h-3v-5.58h3v.6Z"/><path class="cls-2" d="M128.99,54.27h.78l2.05,4.57,2.05-4.57h.78v5.53h-.73v-4.13l-1.84,4.13h-.51l-1.85-4.13v4.13h-.73v-5.53Z"/><path class="cls-2" d="M141.16,59.8h-2.08v-5.57h2c1.18,0,1.77.64,1.77,1.42,0,.7-.44,1.11-.98,1.29.61.1,1.1.69,1.1,1.38,0,.84-.66,1.5-1.82,1.5ZM141.01,54.83h-1.21v1.81h1.22c.68,0,1.07-.34,1.07-.9s-.38-.9-1.09-.9ZM141.07,57.23h-1.26v1.97h1.29c.72,0,1.15-.36,1.15-.97s-.46-1-1.18-1Z"/><path class="cls-2" d="M150.18,54.82h-2.27v1.86h2.03v.6h-2.03v1.92h2.27v.6h-3v-5.58h3v.6Z"/><path class="cls-2" d="M156.29,54.23c1.31,0,1.93.73,1.93,1.64,0,.71-.39,1.39-1.33,1.6l1.4,2.33h-.87l-1.33-2.28h-.88v2.28h-.73v-5.57h1.8ZM156.29,54.83h-1.07v2.11h1.07c.82,0,1.18-.45,1.18-1.07s-.35-1.04-1.18-1.04Z"/><path class="cls-2" d="M164.32,59.86c-1.12,0-1.91-.62-1.93-1.54h.78c.05.46.38.93,1.15.93.7,0,1.12-.4,1.12-.93,0-1.5-3.01-.54-3.01-2.61,0-.92.74-1.54,1.85-1.54s1.76.58,1.85,1.43h-.8c-.05-.38-.4-.8-1.08-.81-.6-.02-1.07.3-1.07.9,0,1.44,3.01.54,3.01,2.61,0,.79-.65,1.58-1.85,1.58Z"/><path class="cls-2" d="M178.29,54.16c1.21,0,2.17.61,2.58,1.69h-.87c-.3-.67-.9-1.05-1.71-1.05-1.17,0-2.04.85-2.04,2.21s.87,2.21,2.04,2.21c.82,0,1.41-.38,1.71-1.04h.87c-.42,1.07-1.38,1.67-2.58,1.67-1.56,0-2.78-1.17-2.78-2.84s1.22-2.85,2.78-2.85Z"/><path class="cls-2" d="M185.89,54.23v4.98h1.95v.59h-2.68v-5.57h.73Z"/><path class="cls-2" d="M191.8,54.23h.73v3.53c0,1.02.55,1.46,1.38,1.46s1.37-.44,1.37-1.46v-3.53h.73v3.52c0,1.45-.95,2.11-2.1,2.11s-2.09-.66-2.09-2.11v-3.52Z"/><path class="cls-2" d="M202.49,59.8h-2.08v-5.57h2c1.18,0,1.77.64,1.77,1.42,0,.7-.44,1.11-.98,1.29.61.1,1.1.69,1.1,1.38,0,.84-.66,1.5-1.82,1.5ZM202.35,54.83h-1.21v1.81h1.22c.68,0,1.07-.34,1.07-.9s-.38-.9-1.09-.9ZM202.4,57.23h-1.26v1.97h1.29c.72,0,1.15-.36,1.15-.97s-.46-1-1.18-1Z"/></g><g id="Club"><path class="cls-1" d="M33.96,37.87c-.21-.35-.49-.64-.86-.89-.94-.57-1.6-.51-1.97.18-1.27,2.05-2.69,3.53-4.27,4.45-1.58.92-3.47,1.38-5.68,1.38-2.78,0-5.23-.79-7.34-2.36-2.11-1.58-3.75-3.7-4.91-6.39-1.17-2.68-1.75-5.66-1.75-8.93,0-3.89.55-7.17,1.66-9.86,1.11-2.68,2.63-4.72,4.57-6.11,1.94-1.39,4.14-2.09,6.6-2.09,2.25,0,3.99.54,5.22,1.63,1.23,1.09,1.84,2.55,1.84,4.39,0,1.07-.26,1.91-.77,2.55-.51.64-1.02,1.11-1.54,1.41-.51.31-.77.52-.77.64-.04.29.19.73.71,1.32.51.59,1.38.89,2.61.89,2.01,0,3.56-.66,4.67-2,1.11-1.33,1.64-2.88,1.6-4.64,0-1.64-.42-3.01-1.26-4.11-.84-1.11-1.93-2-3.29-2.67s-2.82-1.16-4.39-1.44c-1.58-.29-3.1-.43-4.57-.43-4.09,0-7.65.87-10.65,2.61-3.01,1.74-5.33,4.18-6.97,7.31-1.64,3.13-2.46,6.79-2.46,10.96s.87,7.84,2.61,10.87c1.74,3.03,4.04,5.36,6.91,7,2.87,1.64,6.02,2.46,9.46,2.46,2.29,0,4.26-.18,5.9-.55,1.64-.37,3.15-1.05,4.54-2.06,1.39-1,2.87-2.49,4.42-4.45.29-.37.33-.73.12-1.07ZM47.38,42.72c-.27-.06-.58-.09-.95-.09-1.15,0-1.93-.19-2.36-.58-.43-.39-.68-.91-.74-1.57-.06-.65-.09-1.33-.09-2.03V1.18c0-.49-.11-.82-.34-.98-.23-.16-.5-.22-.83-.18-.41.04-.88.16-1.41.37-.53.21-1.3.45-2.3.74-1,.29-2.45.57-4.33.86-.66.12-.98.49-.98,1.11s.15.97.46,1.07c.31.1.64.15,1.01.15,1.15,0,1.92.19,2.33.58.41.39.64.9.71,1.54.06.64.09,1.32.09,2.06v29.97c0,.7-.03,1.37-.09,2.03-.06.66-.31,1.18-.74,1.57-.43.39-1.22.58-2.36.58-.37,0-.69.03-.95.09-.27.06-.42.4-.46,1.01,0,.29.09.56.28.83.18.27.42.4.71.4,1.19-.08,2.27-.13,3.25-.15.98-.02,2.03-.03,3.13-.03s2.16,0,3.16.03c1,.02,2.1.07,3.29.15.33,0,.57-.13.74-.4.16-.27.25-.54.25-.83-.04-.61-.19-.95-.46-1.01ZM79.71,42.57c-3.23,0-4.85-1.21-4.85-3.62v-21.25c0-.49-.11-.82-.34-.98-.23-.16-.5-.22-.83-.18-.41.04-.88.16-1.41.37-.53.21-1.3.45-2.3.74-1,.29-2.45.57-4.33.86-.66.12-.98.49-.98,1.11s.15.97.46,1.07c.31.1.64.15,1.01.15,1.15,0,1.92.19,2.33.58.41.39.64.9.71,1.54.06.64.09,1.32.09,2.06v12.9c-.21.45-.64,1.01-1.29,1.69-.66.68-1.52,1.27-2.58,1.78-1.07.51-2.31.77-3.75.77-.94,0-1.86-.2-2.76-.61-.9-.41-1.65-1.04-2.24-1.9-.59-.86-.89-1.96-.89-3.32v-18.61c0-.49-.11-.82-.34-.98-.23-.16-.5-.22-.83-.18-.41.04-.88.16-1.41.37-.53.21-1.3.45-2.3.74-1,.29-2.45.57-4.33.86-.66.12-.98.49-.98,1.11s.15.97.46,1.07c.31.1.64.15,1.01.15,1.15,0,1.92.19,2.33.58.41.39.64.9.71,1.54.06.64.09,1.32.09,2.06v11.36c0,2.74.82,4.95,2.46,6.63,1.64,1.68,3.85,2.52,6.63,2.52,1.72,0,3.16-.24,4.33-.71,1.17-.47,2.19-1.07,3.07-1.81.88-.74,1.71-1.47,2.49-2.21h.12v3.44c0,.33.02.61.06.86.04.25.2.37.49.37l9.89-.68c.7-.12,1.04-.47,1.04-1.04,0-.29-.06-.55-.18-.8-.12-.25-.41-.37-.86-.37ZM107.03,23.13c-1.15-2.15-2.69-3.84-4.64-5.07-1.94-1.23-4.12-1.84-6.54-1.84-1.39,0-2.85.29-4.36.86-1.52.57-2.89,1.47-4.11,2.7h-.18V1.24c0-.49-.11-.82-.34-.98-.23-.16-.5-.22-.83-.18-.41.04-.88.16-1.41.37-.53.21-1.3.45-2.3.74-1,.29-2.45.57-4.33.86-.66.12-.98.49-.98,1.11s.15.97.46,1.07c.31.1.64.15,1.01.15,1.15,0,1.92.19,2.33.58.41.39.64.9.71,1.54.06.64.09,1.32.09,2.06v35.86c0,.33.1.61.31.86.2.25.49.37.86.37.61,0,1.05-.37,1.32-1.11.27-.74.54-1.41.83-2.03h.31c2.66,2.01,5.81,3.01,9.46,3.01,2.5,0,4.81-.66,6.94-1.97,2.13-1.31,3.85-3.09,5.16-5.34,1.31-2.25,1.96-4.77,1.96-7.55s-.57-5.37-1.72-7.52ZM100.15,40.05c-1.56,2.25-3.56,3.38-6.02,3.38-1.43,0-2.64-.31-3.62-.92s-1.75-1.32-2.3-2.12c-.55-.8-.89-1.48-1.01-2.06v-16.21c.82-.9,1.76-1.6,2.82-2.09,1.06-.49,2.29-.74,3.68-.74,2.09,0,3.78.57,5.07,1.72,1.29,1.15,2.23,2.6,2.82,4.36.59,1.76.89,3.6.89,5.53,0,3.85-.78,6.9-2.33,9.15Z"/></g><g id="house"><path class="cls-3" d="M130.38,13.29c-4.42,0-8.35,2.56-11.79,7.68l1.09-3.81,1.29-7.29c.72-4.06,1.27-6.5,1.65-7.32-.12-.54-.4-.89-.83-1.05-2.45,1.42-4.98,2.38-7.58,2.88l-.16.93c2.32-.12,3.34.64,3.05,2.28l-5.99,33.97c-.22,1.24-1.56,1.99-4.02,2.25l-.16.93c3.89-.32,7.74-.32,11.54,0l.16-.93c-2.36-.32-3.44-1.07-3.23-2.25l3.28-18.62c.84-1.82,2.16-3.52,3.96-5.1,1.82-1.6,3.73-2.4,5.73-2.4s3.19.78,3.81,2.34c.62,1.56.72,3.55.3,5.97l-3.14,17.81c-.2,1.14-1.48,1.89-3.84,2.25l-.16.93c3.77-.2,7.5-.2,11.18,0l.16-.93c-2.28-.34-3.32-1.09-3.11-2.25l3.17-17.96c.65-3.7.35-6.35-.91-7.95-1.24-1.58-3.05-2.37-5.43-2.37ZM154.28,13.44c-3.6,0-6.91,1.45-9.94,4.35-3.01,2.92-4.94,6.77-5.78,11.54-.85,4.84-.28,8.74,1.72,11.69,2.02,2.94,4.91,4.41,8.67,4.41s6.95-1.45,9.94-4.35c2.99-2.9,4.91-6.76,5.76-11.57.85-4.84.28-8.73-1.72-11.66-2-2.94-4.88-4.41-8.64-4.41ZM159.89,29.93c-.84,4.76-2.14,8.34-3.9,10.73-1.76,2.4-3.86,3.6-6.3,3.6-2.74,0-4.69-1.43-5.84-4.29-1.15-2.9-1.33-6.57-.55-11,.84-4.78,2.15-8.37,3.91-10.78,1.76-2.41,3.87-3.61,6.3-3.61,2.74,0,4.68,1.44,5.84,4.32,1.15,2.86,1.34,6.54.54,11.03ZM188.92,42.67c-.45-.52-.56-1.43-.33-2.73l4.45-25.22c.08-.44.04-.72-.1-.85-.15-.13-.48-.17-1.01-.13l-6.65.48-.16.93,1.97.06c.61.04,1,.22,1.16.54.16.32.17.92.01,1.8l-3.19,18.11c-.87,1.4-2.08,2.89-3.64,4.47-.9.92-1.94,1.67-3.13,2.26-1.18.59-2.31.88-3.36.88-3.48,0-4.71-2.85-3.71-8.55l3.53-20c.13-.76-.22-1.09-1.05-.99l-6.65.48-.16.93,1.82.06c.63.04,1.05.23,1.25.57.2.34.23.93.08,1.77l-3.05,17.3c-1.24,7.06.81,10.58,6.17,10.58,4.42-.04,8.49-2.67,12.18-7.89h.45l-2.31,6.84c.11.5.4.85.86,1.05,1.7-.48,4.03-.83,6.99-1.05l.19-1.05c-1.27.08-2.13-.14-2.58-.66ZM211.78,15.2c-.44,0-1.21-.28-2.31-.84-1.16-.58-2.44-.87-3.83-.87-2.48,0-4.67.77-6.58,2.31-1.89,1.54-3.02,3.37-3.4,5.49-.31,1.76.03,3.36,1.01,4.81.98,1.45,2.63,2.87,4.94,4.27,1.57.94,2.66,1.62,3.27,2.04.65.42,1.37.99,2.19,1.71.79.72,1.3,1.42,1.53,2.1.23.68.26,1.51.09,2.49-.28,1.58-.96,2.84-2.05,3.79-1.09.95-2.43,1.42-4.03,1.42-2.02,0-3.91-.7-5.69-2.1-1.79-1.42-2.73-3.13-2.81-5.13h-1.29l-.79,8.04h1.17c.4-.9,1.07-1.35,2.01-1.35.64,0,1.75.32,3.34.96,1.55.62,2.94.93,4.18.93,2.4,0,4.59-.82,6.58-2.46,2.01-1.66,3.22-3.64,3.63-5.94.31-1.74.09-3.12-.65-4.14-.21-.28-.56-.79-1.05-1.53-.29-.42-.84-.92-1.65-1.5l-1.56-1.17c-.22-.2-.86-.59-1.89-1.17-1.01-.62-1.55-.93-1.61-.93-1.93-1.18-3.3-2.28-4.1-3.3-.76-1-1.02-2.2-.77-3.6.25-1.42.92-2.59,2-3.51,1.1-.94,2.37-1.41,3.79-1.41,1.74,0,3.33.63,4.76,1.89,1.4,1.24,2.25,2.85,2.54,4.83h1.11l.73-7.38h-1.11c-.42.82-.99,1.23-1.69,1.23ZM238.92,16.73c-1.87-2.2-4.41-3.3-7.6-3.3-3.66,0-6.99,1.46-10.01,4.38-3.01,2.92-4.96,6.86-5.83,11.81-.87,4.94-.31,8.81,1.67,11.6,2.01,2.8,4.97,4.2,8.88,4.2,5.04,0,8.83-2.13,11.38-6.39h-1.47c-2.07,3.34-4.92,5.01-8.56,5.01-2.92,0-5.02-1.27-6.31-3.81-1.29-2.56-1.51-6.22-.67-10.97h17.21c.92,0,1.61-.25,2.08-.76.47-.51.81-1.34,1.01-2.5.7-3.98.11-7.07-1.78-9.26ZM235.8,27.98h-15.17c.72-4.1,2.03-7.36,3.91-9.77,1.89-2.42,4.1-3.63,6.64-3.63,4.65.04,6.19,4.51,4.62,13.4Z"/></g></svg>