<?xml version="1.0" encoding="UTF-8"?><svg id="Group_1_copy" xmlns="http://www.w3.org/2000/svg" viewBox="0 0 240.99 57.37"><defs><style>.cls-1{fill-rule:evenodd;}.cls-1,.cls-2{fill:#343e32;}</style></defs><g id="Club"><path class="cls-1" d="M33.97,37.86c-.21-.35-.49-.64-.86-.89-.94-.57-1.6-.51-1.97.18-1.27,2.05-2.69,3.53-4.27,4.45-1.58.92-3.47,1.38-5.68,1.38-2.78,0-5.23-.79-7.34-2.36-2.11-1.58-3.75-3.7-4.91-6.39-1.17-2.68-1.75-5.66-1.75-8.93,0-3.89.55-7.17,1.66-9.86,1.11-2.68,2.63-4.72,4.57-6.11,1.94-1.39,4.14-2.09,6.6-2.09,2.25,0,3.99.54,5.22,1.63s1.84,2.55,1.84,4.39c0,1.07-.26,1.91-.77,2.55s-1.02,1.11-1.54,1.41c-.51.31-.77.52-.77.64-.04.29.19.73.71,1.32.51.59,1.38.89,2.61.89,2.01,0,3.56-.66,4.67-2,1.11-1.33,1.64-2.88,1.6-4.64,0-1.64-.42-3.01-1.26-4.11-.84-1.11-1.93-2-3.29-2.67s-2.82-1.16-4.39-1.44c-1.58-.29-3.1-.43-4.57-.43-4.09,0-7.65.87-10.65,2.61-3.01,1.74-5.33,4.18-6.97,7.31-1.64,3.13-2.46,6.79-2.46,10.96s.87,7.84,2.61,10.87c1.74,3.03,4.04,5.36,6.91,7s6.02,2.46,9.46,2.46c2.29,0,4.26-.18,5.9-.55s3.15-1.05,4.54-2.06c1.39-1,2.87-2.49,4.42-4.45.29-.37.33-.73.12-1.07h0ZM47.39,42.71c-.27-.06-.58-.09-.95-.09-1.15,0-1.93-.19-2.36-.58-.43-.39-.68-.91-.74-1.57-.06-.65-.09-1.33-.09-2.03V1.17c0-.49-.11-.82-.34-.98-.23-.16-.5-.22-.83-.18-.41.04-.88.16-1.41.37-.53.21-1.3.45-2.3.74s-2.45.57-4.33.86c-.66.12-.98.49-.98,1.11s.15.97.46,1.07c.31.1.64.15,1.01.15,1.15,0,1.92.19,2.33.58.41.39.64.9.71,1.54.06.64.09,1.32.09,2.06v29.97c0,.7-.03,1.37-.09,2.03s-.31,1.18-.74,1.57-1.22.58-2.36.58c-.37,0-.69.03-.95.09-.27.06-.42.4-.46,1.01,0,.29.09.56.28.83.18.27.42.4.71.4,1.19-.08,2.27-.13,3.25-.15s2.03-.03,3.13-.03,2.16,0,3.16.03c1,.02,2.1.07,3.29.15.33,0,.57-.13.74-.4.16-.27.25-.54.25-.83-.04-.61-.19-.95-.46-1.01,0,0-.02-.02-.02-.02ZM79.72,42.56c-3.23,0-4.85-1.21-4.85-3.62v-21.25c0-.49-.11-.82-.34-.98-.23-.16-.5-.22-.83-.18-.41.04-.88.16-1.41.37-.53.21-1.3.45-2.3.74-1,.29-2.45.57-4.33.86-.66.12-.98.49-.98,1.11s.15.97.46,1.07.64.15,1.01.15c1.15,0,1.92.19,2.33.58s.64.9.71,1.54c.06.64.09,1.32.09,2.06v12.9c-.21.45-.64,1.01-1.29,1.69-.66.68-1.52,1.27-2.58,1.78-1.07.51-2.31.77-3.75.77-.94,0-1.86-.2-2.76-.61-.9-.41-1.65-1.04-2.24-1.9s-.89-1.96-.89-3.32v-18.61c0-.49-.11-.82-.34-.98s-.5-.22-.83-.18c-.41.04-.88.16-1.41.37-.53.21-1.3.45-2.3.74-1,.29-2.45.57-4.33.86-.66.12-.98.49-.98,1.11s.15.97.46,1.07c.31.1.64.15,1.01.15,1.15,0,1.92.19,2.33.58.41.39.64.9.71,1.54.06.64.09,1.32.09,2.06v11.36c0,2.74.82,4.95,2.46,6.63s3.85,2.52,6.63,2.52c1.72,0,3.16-.24,4.33-.71,1.17-.47,2.19-1.07,3.07-1.81s1.71-1.47,2.49-2.21h.12v3.44c0,.33.02.61.06.86s.2.37.49.37l9.89-.68c.7-.12,1.04-.47,1.04-1.04,0-.29-.06-.55-.18-.8s-.41-.37-.86-.37v-.03h0ZM107.04,23.12c-1.15-2.15-2.69-3.84-4.64-5.07-1.94-1.23-4.12-1.84-6.54-1.84-1.39,0-2.85.29-4.36.86-1.52.57-2.89,1.47-4.11,2.7h-.18V1.23c0-.49-.11-.82-.34-.98-.23-.16-.5-.22-.83-.18-.41.04-.88.16-1.41.37-.53.21-1.3.45-2.3.74-1,.29-2.45.57-4.33.86-.66.12-.98.49-.98,1.11s.15.97.46,1.07c.31.1.64.15,1.01.15,1.15,0,1.92.19,2.33.58s.64.9.71,1.54c.06.64.09,1.32.09,2.06v35.86c0,.33.1.61.31.86.2.25.49.37.86.37.61,0,1.05-.37,1.32-1.11s.54-1.41.83-2.03h.31c2.66,2.01,5.81,3.01,9.46,3.01,2.5,0,4.81-.66,6.94-1.97,2.13-1.31,3.85-3.09,5.16-5.34s1.96-4.77,1.96-7.55-.57-5.37-1.72-7.52h0ZM100.16,40.04c-1.56,2.25-3.56,3.38-6.02,3.38-1.43,0-2.64-.31-3.62-.92s-1.75-1.32-2.3-2.12-.89-1.48-1.01-2.06v-16.21c.82-.9,1.76-1.6,2.82-2.09s2.29-.74,3.68-.74c2.09,0,3.78.57,5.07,1.72s2.23,2.6,2.82,4.36.89,3.6.89,5.53c0,3.85-.78,6.9-2.33,9.15Z"/></g><g id="house"><path class="cls-1" d="M130.39,13.28c-4.42,0-8.35,2.56-11.79,7.68l1.09-3.81,1.29-7.29c.72-4.06,1.27-6.5,1.65-7.32-.12-.54-.4-.89-.83-1.05-2.45,1.42-4.98,2.38-7.58,2.88l-.16.93c2.32-.12,3.34.64,3.05,2.28l-5.99,33.97c-.22,1.24-1.56,1.99-4.02,2.25l-.16.93c3.89-.32,7.74-.32,11.54,0l.16-.93c-2.36-.32-3.44-1.07-3.23-2.25l3.28-18.62c.84-1.82,2.16-3.52,3.96-5.1,1.82-1.6,3.73-2.4,5.73-2.4s3.19.78,3.81,2.34.72,3.55.3,5.97l-3.14,17.81c-.2,1.14-1.48,1.89-3.84,2.25l-.16.93c3.77-.2,7.5-.2,11.18,0l.16-.93c-2.28-.34-3.32-1.09-3.11-2.25l3.17-17.96c.65-3.7.35-6.35-.91-7.95-1.24-1.58-3.05-2.37-5.43-2.37h-.02ZM154.29,13.43c-3.6,0-6.91,1.45-9.94,4.35-3.01,2.92-4.94,6.77-5.78,11.54-.85,4.84-.28,8.74,1.72,11.69,2.02,2.94,4.91,4.41,8.67,4.41s6.95-1.45,9.94-4.35c2.99-2.9,4.91-6.76,5.76-11.57.85-4.84.28-8.73-1.72-11.66-2-2.94-4.88-4.41-8.64-4.41h0ZM159.9,29.92c-.84,4.76-2.14,8.34-3.9,10.73-1.76,2.4-3.86,3.6-6.3,3.6-2.74,0-4.69-1.43-5.84-4.29-1.15-2.9-1.33-6.57-.55-11,.84-4.78,2.15-8.37,3.91-10.78,1.76-2.41,3.87-3.61,6.3-3.61,2.74,0,4.68,1.44,5.84,4.32,1.15,2.86,1.34,6.54.54,11.03ZM188.93,42.66c-.45-.52-.56-1.43-.33-2.73l4.45-25.22c.08-.44.04-.72-.1-.85-.15-.13-.48-.17-1.01-.13l-6.65.48-.16.93,1.97.06c.61.04,1,.22,1.16.54.16.32.17.92,0,1.8l-3.19,18.11c-.87,1.4-2.08,2.89-3.64,4.47-.9.92-1.94,1.67-3.13,2.26-1.18.59-2.31.88-3.36.88-3.48,0-4.71-2.85-3.71-8.55l3.53-20c.13-.76-.22-1.09-1.05-.99l-6.65.48-.16.93,1.82.06c.63.04,1.05.23,1.25.57.2.34.23.93.08,1.77l-3.05,17.3c-1.24,7.06.81,10.58,6.17,10.58,4.42-.04,8.49-2.67,12.18-7.89h.45l-2.31,6.84c.11.5.4.85.86,1.05,1.7-.48,4.03-.83,6.99-1.05l.19-1.05c-1.27.08-2.13-.14-2.58-.66h-.03.01ZM211.79,15.19c-.44,0-1.21-.28-2.31-.84-1.16-.58-2.44-.87-3.83-.87-2.48,0-4.67.77-6.58,2.31-1.89,1.54-3.02,3.37-3.4,5.49-.31,1.76.03,3.36,1.01,4.81.98,1.45,2.63,2.87,4.94,4.27,1.57.94,2.66,1.62,3.27,2.04.65.42,1.37.99,2.19,1.71.79.72,1.3,1.42,1.53,2.1s.26,1.51.09,2.49c-.28,1.58-.96,2.84-2.05,3.79s-2.43,1.42-4.03,1.42c-2.02,0-3.91-.7-5.69-2.1-1.79-1.42-2.73-3.13-2.81-5.13h-1.29l-.79,8.04h1.17c.4-.9,1.07-1.35,2.01-1.35.64,0,1.75.32,3.34.96,1.55.62,2.94.93,4.18.93,2.4,0,4.59-.82,6.58-2.46,2.01-1.66,3.22-3.64,3.63-5.94.31-1.74.09-3.12-.65-4.14-.21-.28-.56-.79-1.05-1.53-.29-.42-.84-.92-1.65-1.5l-1.56-1.17c-.22-.2-.86-.59-1.89-1.17-1.01-.62-1.55-.93-1.61-.93-1.93-1.18-3.3-2.28-4.1-3.3-.76-1-1.02-2.2-.77-3.6.25-1.42.92-2.59,2-3.51,1.1-.94,2.37-1.41,3.79-1.41,1.74,0,3.33.63,4.76,1.89,1.4,1.24,2.25,2.85,2.54,4.83h1.11l.73-7.38h-1.11c-.42.82-.99,1.23-1.69,1.23v.02h0ZM238.93,16.72c-1.87-2.2-4.41-3.3-7.6-3.3-3.66,0-6.99,1.46-10.01,4.38-3.01,2.92-4.96,6.86-5.83,11.81-.87,4.94-.31,8.81,1.67,11.6,2.01,2.8,4.97,4.2,8.88,4.2,5.04,0,8.83-2.13,11.38-6.39h-1.47c-2.07,3.34-4.92,5.01-8.56,5.01-2.92,0-5.02-1.27-6.31-3.81-1.29-2.56-1.51-6.22-.67-10.97h17.21c.92,0,1.61-.25,2.08-.76s.81-1.34,1.01-2.5c.7-3.98.11-7.07-1.78-9.26h0ZM235.81,27.97h-15.17c.72-4.1,2.03-7.36,3.91-9.77,1.89-2.42,4.1-3.63,6.64-3.63,4.65.04,6.19,4.51,4.62,13.4Z"/></g><path class="cls-2" d="M73.86,57.3v-5.66h2.15c.27,0,.52.02.75.07.23.04.42.12.59.23s.29.26.38.44.13.42.13.69-.06.52-.18.73c-.12.22-.31.38-.56.48.34.07.59.23.76.46s.26.53.26.9c0,.32-.06.59-.18.8s-.28.38-.49.5-.45.21-.72.26c-.27.05-.56.08-.87.08h-2.02v.02ZM74.71,54.07h1.07c.18,0,.35-.02.5-.05s.28-.08.4-.16c.11-.07.2-.17.26-.28.06-.12.09-.25.09-.42,0-.22-.04-.38-.14-.48s-.23-.17-.4-.21-.35-.05-.54-.05h-1.24v1.66h0ZM74.71,56.52h1.21c.16,0,.32,0,.48-.03.16-.02.31-.06.44-.12.14-.06.25-.15.33-.26s.12-.28.12-.47c0-.17-.03-.3-.1-.41s-.15-.2-.26-.26c-.11-.06-.23-.11-.37-.14s-.29-.04-.44-.04h-1.42v1.73h0Z"/><path class="cls-2" d="M83.98,57.36c-.53,0-.97-.11-1.31-.32-.34-.22-.59-.51-.75-.89s-.24-.82-.24-1.32v-3.18h.85v3.19c0,.31.05.61.14.87.09.27.24.48.46.64.21.16.5.24.86.24s.66-.08.86-.24.35-.37.44-.64c.08-.27.13-.56.13-.87v-3.19h.86v3.18c0,.5-.08.93-.24,1.32-.16.38-.41.68-.74.9s-.77.32-1.31.32h-.01Z"/><path class="cls-2" d="M92.2,57.36c-.37,0-.71-.05-1.04-.16s-.6-.28-.82-.52-.37-.56-.45-.95h.87c.07.22.18.4.34.52.16.12.33.21.54.26s.41.07.62.07.38-.03.56-.08c.17-.05.32-.14.43-.26.11-.12.17-.28.17-.48,0-.15-.03-.27-.09-.37s-.14-.17-.24-.24c-.1-.06-.23-.11-.37-.15-.17-.05-.34-.1-.53-.14s-.38-.08-.56-.13-.36-.11-.52-.18c-.13-.05-.26-.12-.39-.2s-.23-.17-.32-.28-.16-.24-.22-.39c-.06-.15-.08-.32-.08-.51,0-.26.04-.47.12-.66.08-.18.19-.33.33-.46.14-.12.29-.22.47-.29s.37-.12.56-.16.39-.05.58-.05c.34,0,.66.05.94.16.29.11.53.28.72.51s.29.54.31.92h-.82c-.02-.2-.09-.36-.2-.48-.12-.12-.26-.21-.43-.26s-.35-.08-.54-.08c-.14,0-.28,0-.42.04-.14.02-.27.07-.38.13s-.21.14-.27.24-.1.23-.1.38c0,.13.03.24.08.34s.13.18.23.25.21.12.33.17c.22.09.47.15.74.2.27.04.52.11.75.19.17.05.33.12.48.2s.28.17.38.28c.11.11.19.24.25.38s.09.32.09.51c0,.32-.06.58-.17.8-.11.22-.26.4-.46.53-.19.13-.41.23-.66.29s-.51.09-.78.09l-.03.02Z"/><path class="cls-2" d="M97.92,57.3v-5.66h.85v5.66h-.85Z"/><path class="cls-2" d="M102.66,57.3v-5.66h.98l2.84,4.42v-4.42h.84v5.66h-.96l-2.86-4.39v4.39h-.85.01Z"/><path class="cls-2" d="M111.21,57.3v-5.66h3.9v.78h-3.05v1.7h2.7v.77h-2.7v1.64h3.05v.78h-3.9Z"/><path class="cls-2" d="M120.76,57.36c-.37,0-.71-.05-1.04-.16s-.6-.28-.82-.52-.37-.56-.45-.95h.87c.07.22.18.4.34.52s.33.21.54.26.41.07.62.07.38-.03.56-.08c.17-.05.32-.14.43-.26.11-.12.17-.28.17-.48,0-.15-.03-.27-.09-.37s-.14-.17-.24-.24c-.1-.06-.23-.11-.37-.15-.17-.05-.34-.1-.53-.14s-.38-.08-.56-.13-.36-.11-.52-.18c-.13-.05-.26-.12-.39-.2s-.23-.17-.32-.28-.16-.24-.22-.39c-.06-.15-.08-.32-.08-.51,0-.26.04-.47.12-.66.08-.18.19-.33.33-.46.14-.12.29-.22.47-.29.18-.07.37-.12.56-.16s.39-.05.58-.05c.34,0,.66.05.94.16.29.11.53.28.72.51s.29.54.31.92h-.82c-.02-.2-.09-.36-.2-.48-.12-.12-.26-.21-.43-.26s-.35-.08-.54-.08c-.14,0-.28,0-.42.04-.14.02-.27.07-.38.13s-.21.14-.27.24-.1.23-.1.38c0,.13.03.24.08.34s.13.18.23.25.21.12.33.17c.22.09.47.15.74.2.27.04.52.11.75.19.17.05.33.12.48.2s.28.17.38.28c.11.11.19.24.25.38s.09.32.09.51c0,.32-.06.58-.17.8-.11.22-.26.4-.46.53-.19.13-.41.23-.66.29s-.51.09-.78.09l-.03.02Z"/><path class="cls-2" d="M128.56,57.36c-.37,0-.71-.05-1.04-.16s-.6-.28-.82-.52-.37-.56-.45-.95h.87c.07.22.18.4.34.52s.33.21.54.26.41.07.62.07.38-.03.56-.08c.17-.05.32-.14.43-.26.11-.12.17-.28.17-.48,0-.15-.03-.27-.09-.37s-.14-.17-.24-.24c-.1-.06-.23-.11-.37-.15-.17-.05-.34-.1-.53-.14s-.38-.08-.56-.13-.36-.11-.52-.18c-.13-.05-.26-.12-.39-.2s-.23-.17-.32-.28-.16-.24-.22-.39c-.06-.15-.08-.32-.08-.51,0-.26.04-.47.12-.66.08-.18.19-.33.33-.46.14-.12.29-.22.47-.29.18-.07.37-.12.56-.16s.39-.05.58-.05c.34,0,.66.05.94.16.29.11.53.28.72.51s.29.54.31.92h-.82c-.02-.2-.09-.36-.2-.48-.12-.12-.26-.21-.43-.26s-.35-.08-.54-.08c-.14,0-.28,0-.42.04-.14.02-.27.07-.38.13s-.21.14-.27.24-.1.23-.1.38c0,.13.03.24.08.34s.13.18.23.25.21.12.33.17c.22.09.47.15.74.2.27.04.52.11.75.19.17.05.33.12.48.2s.28.17.38.28c.11.11.19.24.25.38s.09.32.09.51c0,.32-.06.58-.17.8-.11.22-.26.4-.46.53-.19.13-.41.23-.66.29s-.51.09-.78.09l-.03.02Z"/><path class="cls-2" d="M141.36,57.36c-.58,0-1.07-.12-1.46-.37s-.69-.58-.88-1.02c-.2-.43-.3-.93-.3-1.5s.1-1.07.3-1.5c.2-.44.5-.78.89-1.03s.88-.37,1.46-.37c.42,0,.79.07,1.1.2.32.14.57.33.76.58.19.25.32.54.39.88h-.83c-.08-.27-.24-.49-.49-.65s-.56-.24-.94-.24c-.43,0-.77.1-1.03.3s-.45.46-.56.77c-.12.32-.18.66-.18,1.03s.06.73.18,1.06.32.59.58.78.61.3,1.02.3c.26,0,.48-.04.68-.11s.36-.18.5-.31c.13-.14.22-.29.27-.48h.89c-.07.35-.21.65-.42.9-.21.25-.48.44-.81.58-.33.13-.7.2-1.13.2h.01Z"/><path class="cls-2" d="M147.25,57.3v-5.66h.85v4.88h3.02v.78h-3.87Z"/><path class="cls-2" d="M156.72,57.36c-.53,0-.97-.11-1.31-.32-.34-.22-.59-.51-.75-.89s-.24-.82-.24-1.32v-3.18h.85v3.19c0,.31.05.61.14.87.09.27.24.48.46.64.21.16.5.24.86.24s.66-.08.86-.24.35-.37.44-.64c.08-.27.13-.56.13-.87v-3.19h.86v3.18c0,.5-.08.93-.24,1.32-.16.38-.41.68-.74.9s-.77.32-1.31.32h-.01Z"/><path class="cls-2" d="M162.85,57.3v-5.66h2.15c.27,0,.52.02.75.07s.42.12.59.23.29.26.38.44c.09.18.13.42.13.69s-.06.52-.18.73c-.12.22-.31.38-.56.48.34.07.59.23.76.46s.26.53.26.9c0,.32-.06.59-.18.8s-.28.38-.49.5-.45.21-.72.26-.56.08-.87.08h-2.02v.02ZM163.7,54.07h1.07c.18,0,.35-.02.5-.05s.28-.08.4-.16c.11-.07.2-.17.26-.28.06-.12.09-.25.09-.42,0-.22-.04-.38-.14-.48s-.23-.17-.4-.21-.35-.05-.54-.05h-1.24v1.66h0ZM163.7,56.52h1.21c.16,0,.32,0,.48-.03.16-.02.31-.06.44-.12.14-.06.25-.15.33-.26s.12-.28.12-.47c0-.17-.03-.3-.1-.41-.06-.11-.15-.2-.26-.26-.11-.06-.23-.11-.37-.14s-.29-.04-.44-.04h-1.42v1.73h0Z"/></svg>